<svg width="13" height="13" viewBox="0 0 13 13" fill="none" xmlns="http://www.w3.org/2000/svg">
<g clip-path="url(#clip0_59_8)">
<path d="M11.2682 2.64316C11.2638 2.61587 11.2486 2.59079 11.2253 2.57225C11.202 2.5537 11.172 2.54287 11.1405 2.5416C11.0825 2.5416 10.0602 2.52129 10.0602 2.52129C10.0602 2.52129 9.43313 1.99266 9.20069 1.78928V12.7766L12.8479 11.9844C12.8479 11.9844 11.2798 2.7041 11.2682 2.64316ZM8.376 1.78928C8.3203 1.6355 8.25032 1.48596 8.16679 1.34215C7.86384 0.834082 7.41174 0.558594 6.87723 0.558594C6.8382 0.557407 6.79916 0.560823 6.76116 0.56875C6.74955 0.548437 6.72634 0.538281 6.71473 0.517968C6.48259 0.295293 6.1808 0.19373 5.8204 0.203125C5.12397 0.223437 4.42755 0.660156 3.86895 1.44295C3.47402 1.99189 3.17252 2.68303 3.09069 3.22182C2.28922 3.4351 1.73179 3.5877 1.72018 3.59785C1.31393 3.70957 1.30203 3.71973 1.25589 4.05488C1.22107 4.30879 0.153214 11.4644 0.153214 11.4644L8.93344 12.7969V1.6674C8.8907 1.66881 8.84808 1.6722 8.80576 1.67756C8.80576 1.67756 8.64326 1.71818 8.376 1.78928ZM6.77306 2.2265C6.30877 2.34838 5.79719 2.49057 5.29779 2.62285C5.43708 2.145 5.71594 1.6674 6.04123 1.35332C6.16891 1.2416 6.3433 1.10932 6.54063 1.02807C6.73824 1.39293 6.78467 1.89109 6.77306 2.2265ZM5.8204 0.620547C5.96672 0.616511 6.11148 0.647783 6.23884 0.710937C6.05313 0.792187 5.86712 0.924472 5.69301 1.07682C5.25165 1.49373 4.91476 2.14322 4.77547 2.76402C4.35703 2.876 3.93888 2.98771 3.55672 3.08928C3.81092 2.11453 4.75167 0.640859 5.8204 0.620547ZM7.23763 2.10437C7.23763 1.79969 7.19121 1.36246 7.02842 0.996582C7.56292 1.08799 7.81828 1.60596 7.93464 1.92156C7.72552 1.97234 7.49318 2.03328 7.23763 2.10437Z" fill="black"/>
</g>
<defs>
<clipPath id="clip0_59_8">
<rect width="13" height="13" fill="white"/>
</clipPath>
</defs>
</svg>
