<svg width="16" height="15" viewBox="0 0 16 15" fill="none" xmlns="http://www.w3.org/2000/svg">
<path d="M15.9556 4.88181C16.0617 5.13675 15.9722 5.42098 15.7435 5.60266L14.3078 6.75718C14.3443 7.00039 14.3642 7.24946 14.3642 7.50147C14.3642 7.75347 14.3443 8.00254 14.3078 8.24575L15.7435 9.40027C15.9722 9.58195 16.0617 9.86618 15.9556 10.1211C15.8098 10.4698 15.634 10.8039 15.4318 11.1262L15.276 11.3635C15.0571 11.6859 14.8118 11.9906 14.5432 12.2778C14.3476 12.4888 14.0227 12.5591 13.7309 12.477L11.8842 11.9584C11.4399 12.2602 10.9492 12.5122 10.4253 12.7027L10.0109 14.3759C9.94457 14.6425 9.71248 14.8535 9.40745 14.8974C8.9499 14.9648 8.4791 15 7.99834 15C7.51759 15 7.04678 14.9648 6.58924 14.8974C6.28421 14.8535 6.05212 14.6425 5.98581 14.3759L5.57136 12.7027C5.04751 12.5122 4.55681 12.2602 4.11253 11.9584L2.26908 12.48C1.97732 12.562 1.65239 12.4888 1.45678 12.2807C1.18822 11.9936 0.942866 11.6888 0.72404 11.3665L0.56821 11.1291C0.365962 10.8068 0.190238 10.4727 0.0443539 10.124C-0.0617435 9.86912 0.0277762 9.58488 0.256549 9.4032L1.69218 8.24868C1.65571 8.00254 1.63581 7.75347 1.63581 7.50147C1.63581 7.24946 1.65571 7.00039 1.69218 6.75718L0.256549 5.60266C0.0277762 5.42098 -0.0617435 5.13675 0.0443539 4.88181C0.190238 4.53311 0.365962 4.19906 0.56821 3.87673L0.72404 3.63938C0.942866 3.31705 1.18822 3.01231 1.45678 2.72514C1.65239 2.51416 1.97732 2.44384 2.26908 2.52588L4.11584 3.04454C4.56012 2.74272 5.05082 2.49072 5.57468 2.30025L5.98912 0.627076C6.05543 0.360422 6.28752 0.149443 6.59255 0.105489C7.0501 0.0351631 7.5209 0 8.00166 0C8.48241 0 8.95322 0.0351631 9.41076 0.102559C9.71579 0.146513 9.94788 0.357492 10.0142 0.624145L10.4286 2.29732C10.9525 2.48779 11.4432 2.73979 11.8875 3.04161L13.7342 2.52295C14.026 2.44091 14.3509 2.51416 14.5465 2.72221C14.8151 3.00938 15.0605 3.31412 15.2793 3.63645L15.4351 3.8738C15.6374 4.19613 15.8131 4.53018 15.959 4.87888L15.9556 4.88181ZM8.00166 9.84567C8.70513 9.84567 9.37978 9.59869 9.87721 9.15907C10.3746 8.71945 10.6541 8.12319 10.6541 7.50147C10.6541 6.87974 10.3746 6.28348 9.87721 5.84386C9.37978 5.40424 8.70513 5.15726 8.00166 5.15726C7.29819 5.15726 6.62353 5.40424 6.1261 5.84386C5.62868 6.28348 5.34922 6.87974 5.34922 7.50147C5.34922 8.12319 5.62868 8.71945 6.1261 9.15907C6.62353 9.59869 7.29819 9.84567 8.00166 9.84567Z" fill="black"/>
</svg>
